<svg xmlns="http://www.w3.org/2000/svg" xml:space="preserve" width="694.05" height="407.18" style="shape-rendering:geometricPrecision;text-rendering:geometricPrecision;image-rendering:optimizeQuality;fill-rule:evenodd;clip-rule:evenodd" viewBox="0 0 18363.44 10773.34"><defs><style>.fil0,.fil1,.fil2{fill:#e31e24}.fil0,.fil2{fill-rule:nonzero}</style></defs><g id="Layer_x0020_1"><g id="_2789862392624"><path class="fil0" d="M12225.82 10178.09v-.02l.25.95zM4734.41 5112.29c861.26-.51 1722.6-.83 2583.87-1.85 0 217.72 310.17 264.86 477.63 299.72 315.96 65.75 740.06 98.9 1269.28 98.9 204.96 0 1848.27 12.53 1848.27-340.16 0-167.12-668.13-286.52-2007.53-359.07-966.92-52.35-1962.22-88.4-2911.22-291.08-542.64-115.88-813.81-262.67-813.81-439.43 0-243.07 376.04-438.44 1126.01-585.76 982.02-192.93 2007.69-221.03 3005.55-221.03 930.91 0 1885.27 24.66 2802.65 197.33 694.58 130.76 1085.16 314.03 1163.43 550.43h-2565.21c0-316.6-1320.27-298.96-1509.39-298.96-171.11 0-1499.62-9.87-1499.62 291.69 0 120.19 267.18 164.61 345.99 180.06 274.52 53.79 855.53 103.67 1750.42 148.25 397.42 19.8 702.67 35.02 916.18 48.01 994.32 60.47 1726.49 146.91 2201.42 259.85 472.26 112.32 710.69 257.18 710.69 432.91 0 266.66-415.44 481.3-1242.62 643.43-1078.87 211.43-2205.66 242.62-3300.8 242.62-1041.67 0-2105.87-33.51-3130.86-234.78-794.19-155.94-1201.69-363.38-1220.33-621.08z"/><path class="fil1" d="M10091.64 6661.61c727.96 1288.26 2109.43 2157.43 3693.65 2156.92 2340.85-.76 4240.41-1898.88 4240.41-4240.41 0-2341.49-1898.9-4240.37-4240.41-4240.37-1609.75 0-3010.98 896.78-3729.08 2218.6l1458.83.73c556.74-624.94 1367.64-1018.59 2270.26-1018.59 1678.48 0 3039.65 1361.17 3039.65 3039.65 0 1678.47-1361.17 3039.65-3039.65 3039.65-872.93 0-1660.05-368.19-2214.48-957.7l-1479.18 1.52zm-539.78-337.9c686.36 1662.36 2323.53 2832.56 4233.43 2832.56 2528.02 0 4578.15-2050.13 4578.15-4578.15C18363.44 2050.13 16313.31.01 13785.29.01c-1935.48 0-3590.89 1201.76-4260.51 2899.6l2147.02-4.73c495.08-620.76 1257.93-1018.65 2113.5-1018.65 1491.98 0 2701.91 1209.93 2701.91 2701.91 0 1491.98-1209.93 2701.91-2701.91 2701.91-826.48 0-1566.43-371.3-2062.08-956.16l-2171.36-.18zM8811.58 6323.71c-686.36 1662.36-2323.53 2832.56-4233.43 2832.56C2050.13 9156.27 0 7106.14 0 4578.12 0 2050.13 2050.13.01 4578.15.01c1935.48 0 3590.89 1201.76 4260.51 2899.6l-2147.02-4.73c-495.08-620.76-1257.93-1018.65-2113.5-1018.65-1491.98 0-2701.91 1209.93-2701.91 2701.91 0 1491.98 1209.93 2701.91 2701.91 2701.91 826.48 0 1566.43-371.3 2062.08-956.16l2171.36-.18z"/><path class="fil2" d="M16333.09 10753.15h-420.32l-717.73-665.15v665.15h-399.77v-969.11h521.12l616.96 555.21v-555.21h399.74zM14387.38 10402.29c0 119.8-63.56 211.56-190.78 275.34-127.22 63.78-314.86 95.71-562.22 95.71-247.73 0-435.06-31.93-561.8-95.71-126.85-63.78-190.47-155.32-190.47-274.66v-618.93h438.56v604.5c0 67.34 24.48 117.57 73.75 150.43 49.21 33.09 129.06 49.55 239.96 49.55 108.9 0 188.43-16.01 238.86-47.57 50.4-31.74 75.64-82.42 75.64-152.41v-604.5h438.5v618.25zM10629.36 10448.54c0 95.57-70.56 173.07-212.12 232.61-141.14 59.78-332.74 89.56-575.04 89.56-140.38 0-262.52-7.11-366.42-21.12-104.27-14.2-201.59-32.01-292.76-53.75v-232.39h47.71c90.35 41.3 191.18 72.84 302.84 95.06 111.69 22.25 219.1 33.12 322.23 33.12 26.38 0 61.22-1.13 104.33-3.79 43.39-2.68 78.29-6.89 105.79-13.1 33.37-7.76 60.54-17.53 82.25-29.33 21.65-11.55 32.58-28.91 32.58-51.98 0-21.34-15.92-39.55-47.38-55.11-31.39-15.3-77.44-27.11-138-35.35-63.62-8.64-130.61-16.88-201.68-24.42-70.9-7.57-137.22-17.37-199.19-28.88-142.38-26.69-244.73-62.46-307.55-107.72-62.46-45.34-93.43-101.78-93.43-169.09 0-90.23 70.59-163.75 211.7-220.84 141.11-57.11 322.97-85.49 544.8-85.49 111.3 0 221.41 5.96 329.94 18.38 108.59 12.42 202.86 28.01 282.34 46.64v223.1h-46.53c-68.32-31.11-151.67-57.31-250.54-78.43-98.85-20.86-199.65-31.54-302.81-31.54-36.45 0-72.48 1.56-108.56 4.21-35.69 2.88-70.53 8.22-103.99 15.98-29.45 6.47-54.63 16.46-75.98 29.56-21.31 13.33-31.76 28.43-31.76 45.32 0 25.55 17.03 45.34 51.22 58.89 34.13 13.78 98.45 26.2 193.06 37.55 62.06 7.34 121.8 14.43 178.78 21.32 57.37 7.11 118.66 16.68 184.51 28.68 129.56 24.45 225.33 57.52 286.94 99.27 61.69 41.76 92.72 96.19 92.72 163.08zM4488.14 10753.15H3264.76v-969.11h1223.38v187.3h-789.48v167.28h732.5v187.47h-732.5v239.53h789.48zM3002.25 10753.15H1782.37v-969.11h436.3v781.58h783.58zM863.07 10772.01c-125.58 0-241.51-10.62-348.15-31.96-106.19-21.12-197.72-52.91-274.15-94.89-76.37-42.18-135.72-94.64-177.99-157.55-41.87-63.04-62.76-135.74-62.76-218.1 0-76.68 20.1-146.42 60.03-208.87 40.4-62.42 98.5-116.21 174.93-160.85 73.64-42.91 164.8-76.2 273.34-99.55 108.58-23.54 227.19-35.06 355.94-35.06 71.38 0 135.33 2.23 192.73 6.63 57 4.66 110.14 10.67 158.53 17.99 50.42 8.21 96.62 17.53 137.72 27.78 41.45 9.99 77.48 19.53 108.59 28.23v235.04h-50.06c-20.95-10.41-47.68-22.89-79.9-37.07-32.16-14.45-68.64-28.48-109.74-42.46-41.45-13.78-86.85-25.58-135.25-35.09-48.5-9.57-100.11-14.23-155.54-14.23-61.21 0-119.4 5.33-174.88 16.46-55.45 11.06-106.21 29.56-153.5 55.08-44.59 24.68-80.67 57.57-108.25 98.2-27.87 40.91-41.45 90.2-41.45 148.42 0 60.84 14.74 111.49 44.61 152.38 30.18 40.65 67.87 72.89 113.24 96.19 46.11 24.02 97.67 40.91 154.3 51.1 57.01 10.25 112.83 15.33 168.25 15.33 53.11 0 105.51-4.4 157.46-13.52 51.92-9.12 99.64-21.57 143.46-37.13 37.27-12.68 71.77-26.2 103.56-40.43 31.79-14.23 57.74-26.65 78.35-37.1h45.34v231.71c-42.29 10.93-83.06 21.12-121.43 30.69-38.77 9.55-79.06 17.79-121.69 24.65-55.11 9.12-107.06 16.01-155.51 20.89-48.51 4.69-115.17 7.09-200.13 7.09zM6417.2 10753.15h-450.96l-117.08-195.94h-627.02l-117.12 195.94h-439.68l625.12-969.11h502.06l624.68 969.11zm-680.7-385.61-208.19-347.44-207.86 347.44h416.05zM8289.3 10753.15h-532.8l-461.4-355.52h-200.83v355.52h-433.95v-969.11h731.34c100.06 0 186.15 3.1 257.86 9.79 72.11 6.41 139.62 20.39 202.38 42.18 63.61 21.8 114.04 49.75 151.62 84.22 37.58 34.65 56.24 77.99 56.24 129.96 0 71.55-29.11 129.99-86.85 175.11-58.19 45.09-140.77 82.58-248.17 112.59l564.56 415.26zm-680.49-672.3c0-24.45-8.95-45.31-26.01-62.65-17.47-17.33-47.68-30.85-89.89-40.91-29.48-6.88-63.98-11.06-103.2-12.62-39.55-1.55-85.29-2.42-137.61-2.42h-157.83v261.01h133.69c69.82 0 128.41-1.97 175.31-5.76 46.98-3.98 86.11-12.87 117.9-26.65 30.27-13.55 52.74-28.46 66.66-44.66 14-16.21 20.98-38.01 20.98-65.34zM12573.12 10268.83c0 154.58-77.19 277.23-231.94 368.11-154.33 90.88-367.92 136.4-640.54 136.4-271.78 0-485-45.52-639.78-136.4-154.33-90.88-231.46-213.53-231.46-368.11 0-155.73 77.13-278.83 231.46-369.29 154.78-90.66 368-135.69 639.78-135.69 271.04 0 484.35 45.03 639.35 135.69 155.55 90.46 233.13 213.56 233.13 369.29zm-578.14 245.46c42.23-29.53 73.6-64.42 94.21-104.43 20.56-40.18 30.61-87.3 30.61-141.7 0-58-11.61-107.55-35.27-148.43-23.26-40.65-54.32-73.74-91.9-98.84-38.76-25.98-83.4-44.89-133.35-56.7-50.42-11.74-103.16-17.53-157.46-17.53-55.42 0-107.37 5.59-156.24 16.88-48.88 11.33-93.88 30.02-134.54 55.99-38.03 24.45-68.63 57.8-92.69 100.65-24.03 42.66-35.72 92.21-35.72 148.65 0 57.74 11.33 106.81 34.53 147.49 23.3 40.66 53.51 73.52 91.54 99.3 37.95 25.58 82.22 44.47 133.01 56.69 50.76 11.98 103.87 18.19 160.11 18.19 55.85 0 109.38-6.21 160.17-18.64 50.77-12.45 94.96-31.53 132.99-57.57zM18363.39 10269.51c0 90.12-36.02 171.04-108.25 242.58-71.71 71.32-162.79 125.98-272.6 164.18-82.52 28.69-172.9 48.67-271.35 60-98.51 11.35-215.23 16.88-349.76 16.88h-596.42v-969.11h613.47c137.64 0 256.7 6.43 356.74 19.76 99.63 13.33 183.77 32.02 252.04 56.18 116.72 40.91 208.65 96 275.28 165.11 67.06 69.32 100.85 150.66 100.85 244.42zm-450.92-2.03c0-63.73-20.61-118.19-60.9-163.5-40.74-45.35-104.72-80.86-192.76-106.44a767.793 767.793 0 0 0-136.87-25.78c-46.51-4.66-116.67-6.89-210.57-6.89h-110.06v606.77h110.06c103.56 0 179.96-2.88 228.41-8.22 48.51-5.33 95.8-15.33 141.93-29.56 79.54-26.2 137.67-60.9 174.88-104.63 37.24-43.57 55.88-97.35 55.88-161.75z"/></g></g></svg>